<?xml version="1.0" encoding="utf-8"?>
<!-- Generator: Adobe Illustrator 26.1.0, SVG Export Plug-In . SVG Version: 6.00 Build 0)  -->
<svg version="1.1" id="Layer_1" xmlns="http://www.w3.org/2000/svg" xmlns:xlink="http://www.w3.org/1999/xlink" x="0px" y="0px"
	 viewBox="0 0 20 16" style="enable-background:new 0 0 20 16;" xml:space="preserve">
<style type="text/css">
	.st0{fill:#112E50;}
	.st1{fill:#FFFFFF;}
	.st2{fill:#FDB733;}
</style>
<path class="st0" d="M17.61,7.06L19.23,0h-9.7c-1.85,0-3.2,0.23-4.25,0.73C3.95,1.36,3.07,2.47,2.73,3.94l-1.72,7.48
	c-0.29,1.26-0.12,2.3,0.51,3.09C2.35,15.55,3.81,16,6.4,16h9.16l1.27-5.54H9.32l0.78-3.39H17.61z"/>
<path class="st1" d="M8.29,11.28h7.52l-0.89,3.89H6.4c-2.31,0-3.58-0.35-4.23-1.18c-0.47-0.59-0.58-1.37-0.35-2.38l1.72-7.48
	C3.82,2.9,4.52,2,5.64,1.48c0.94-0.44,2.18-0.65,3.9-0.65h8.66l-1.24,5.41h-5.82l0.35-1.52H9.79L8.29,11.28z"/>
<path class="st2" d="M17.55,1.4l-0.98,4.27h-4.65l0.35-1.52H9.41l-1.77,7.71h7.52l-0.63,2.75H6.47c-3.02,0-4.55-0.58-4.03-2.86
	l1.72-7.48C4.67,2.03,6.61,1.4,9.61,1.4H17.55z"/>
</svg>
